<?xml version="1.0" encoding="UTF-8" standalone="no"?>
<svg
   xmlns:dc="http://purl.org/dc/elements/1.1/"
   xmlns:cc="http://creativecommons.org/ns#"
   xmlns:rdf="http://www.w3.org/1999/02/22-rdf-syntax-ns#"
   xmlns:svg="http://www.w3.org/2000/svg"
   xmlns="http://www.w3.org/2000/svg"
   viewBox="0 0 1024 500"
   height="500"
   width="1024"
   xml:space="preserve"
   id="svg10"
   version="1.1"><metadata
     id="metadata16"><rdf:RDF><cc:Work
         rdf:about=""><dc:format>image/svg+xml</dc:format><dc:type
           rdf:resource="http://purl.org/dc/dcmitype/StillImage" /><dc:title></dc:title></cc:Work></rdf:RDF></metadata><defs
     id="defs14"><clipPath
       id="clipPath26"
       clipPathUnits="userSpaceOnUse"><path
         id="path24"
         clip-rule="evenodd"
         d="M 0,0 H 3200 V 1593.75 H 0 Z" /></clipPath><clipPath
       id="clipPath40"
       clipPathUnits="userSpaceOnUse"><path
         id="path38"
         clip-rule="evenodd"
         d="M 0,0 H 3200 V 1562.5 H 0 Z" /></clipPath><clipPath
       id="clipPath52"
       clipPathUnits="userSpaceOnUse"><path
         id="path50"
         clip-rule="evenodd"
         d="M 0,0 H 3200 V 1562.5 H 0 Z" /></clipPath><clipPath
       id="clipPath76"
       clipPathUnits="userSpaceOnUse"><path
         id="path74"
         clip-rule="evenodd"
         d="M 215.23654,229.83022 H 1124.6115 V 1145.4552 H 215.23654 Z" /></clipPath><clipPath
       id="clipPath100"
       clipPathUnits="userSpaceOnUse"><path
         id="path98"
         clip-rule="evenodd"
         d="M 0,0 H 3200 V 1562.5 H 0 Z" /></clipPath></defs><g
     transform="matrix(0.31999998,0,0,0.31999998,0,9.434666e-6)"
     id="g18"><g
       id="g20"><g
         clip-path="url(#clipPath26)"
         id="g22"><g
           transform="scale(3.125)"
           id="g28"><path
             id="path30"
             style="fill:#ffffff;fill-opacity:1;fill-rule:nonzero;stroke:none"
             d="M 0,0 H 1024 V 510 H 0 Z" /><path
             id="path32"
             style="fill:#ffffff;fill-opacity:1;fill-rule:nonzero;stroke:none"
             d="M 0,0 H 1024 V 500 H 0 Z" /></g></g></g><g
       id="g34"><g
         clip-path="url(#clipPath40)"
         id="g36"><g
           transform="scale(3.125)"
           id="g42"><path
             id="path44"
             style="fill:#673ab7;fill-opacity:1;fill-rule:nonzero;stroke:none"
             d="M 0,0 H 1024 V 500 H 0 Z" /></g></g></g><g
       id="g46"><g
         clip-path="url(#clipPath52)"
         id="g48"><g
           transform="matrix(5.3789539,0,0,5.3789539,1268.7307,942.21143)"
           id="g54"><g
             style="font-variant:normal;font-weight:normal;font-family:Arial;-inkscape-font-specification:Arial;writing-mode:lr-tb;fill:#ffffff;fill-opacity:1;fill-rule:nonzero;stroke:none"
             id="text58"
             transform="translate(57.390625,18)"
             aria-label="INFINITELY TAKE NOTES,"><path
               id="path186"
               d="M 1.1074219,0 V -8.2558594 H 2.2265625 V 0 Z" /><path
               id="path188"
               d="m 14.148105,0 -4.4179686,-7.03125 0.029297,0.5683594 0.029297,0.9785156 V 0 H 8.7926364 v -8.2558594 h 1.3007816 l 4.464843,7.078125 q -0.07031,-1.1484375 -0.07031,-1.6640625 v -5.4140625 h 1.007812 V 0 Z" /><path
               id="path190"
               d="m 25.174965,-7.3417969 v 3.0703125 h 4.605469 v 0.9257813 H 25.174965 V 0 h -1.119141 v -8.2558594 h 5.865235 v 0.9140625 z" /><path
               id="path192"
               d="m 37.431957,0 v -8.2558594 h 1.119141 V 0 Z" /><path
               id="path194"
               d="m 50.472641,0 -4.417969,-7.03125 0.0293,0.5683594 0.0293,0.9785156 V 0 h -0.996094 v -8.2558594 h 1.300781 l 4.464844,7.078125 q -0.07031,-1.1484375 -0.07031,-1.6640625 v -5.4140625 h 1.007812 V 0 Z" /><path
               id="path196"
               d="m 60.503407,0 v -8.2558594 h 1.11914 V 0 Z" /><path
               id="path198"
               d="M 71.422997,-7.3417969 V 0 h -1.113282 v -7.3417969 h -2.835937 v -0.9140625 h 6.785156 v 0.9140625 z" /><path
               id="path200"
               d="m 80.290298,0 v -8.2558594 h 6.263672 v 0.9140625 h -5.144531 v 2.6484375 h 4.792969 v 0.9023438 h -4.792969 v 2.8769531 h 5.384766 V 0 Z" /><path
               id="path202"
               d="m 94.616745,0 v -8.2558594 h 1.119141 v 7.3417969 h 4.171875 V 0 Z" /><path
               id="path204"
               d="M 109.66228,-3.421875 V 0 H 108.549 v -3.421875 l -3.17579,-4.8339844 h 1.23047 l 2.51368,3.9316407 2.50195,-3.9316407 h 1.23047 z" /><path
               id="path206"
               d="M 133.43407,-7.3417969 V 0 h -1.11328 v -7.3417969 h -2.83594 V -8.2558594 H 136.27 v 0.9140625 z" /><path
               id="path208"
               d="m 148.15488,0 -0.94336,-2.4140625 H 143.4498 L 142.50058,0 h -1.16016 l 3.36914,-8.2558594 h 1.27149 L 149.29745,0 Z m -2.82422,-7.4121094 -0.0527,0.1640625 Q 145.13144,-6.7617187 144.84433,-6 l -1.05469,2.7128906 h 3.08789 l -1.06054,-2.7246093 q -0.16407,-0.4042969 -0.32813,-0.9140625 z" /><path
               id="path210"
               d="m 163.35338,0 -3.29883,-3.984375 -1.07812,0.8203125 V 0 h -1.11915 v -8.2558594 h 1.11915 v 4.1367188 l 3.97851,-4.1367188 h 1.31836 L 160.75768,-4.6699219 164.74205,0 Z" /><path
               id="path212"
               d="m 170.62248,0 v -8.2558594 h 6.26367 v 0.9140625 h -5.14453 v 2.6484375 h 4.79297 v 0.9023438 h -4.79297 v 2.8769531 h 5.38477 V 0 Z" /><path
               id="path214"
               d="m 199.08844,0 -4.41797,-7.03125 0.0293,0.5683594 0.0293,0.9785156 V 0 h -0.99609 v -8.2558594 h 1.30078 l 4.46485,7.078125 q -0.0703,-1.1484375 -0.0703,-1.6640625 v -5.4140625 h 1.00782 V 0 Z" /><path
               id="path216"
               d="m 216.77155,-4.1660156 q 0,1.2949218 -0.49805,2.2675781 -0.49219,0.97265625 -1.41797,1.49414062 -0.92578,0.52148438 -2.18555,0.52148438 -1.27148,0 -2.19726,-0.515625 -0.91992,-0.515625 -1.40625,-1.4882812 -0.48633,-0.9785157 -0.48633,-2.2792969 0,-1.9804688 1.08398,-3.09375 1.08399,-1.1191407 3.01758,-1.1191407 1.25977,0 2.18555,0.5039063 0.92578,0.4980469 1.41211,1.453125 0.49219,0.9550781 0.49219,2.2558594 z m -1.14258,0 q 0,-1.5410156 -0.77344,-2.4199219 -0.76758,-0.8789062 -2.17383,-0.8789062 -1.41797,0 -2.1914,0.8671875 -0.77344,0.8671875 -0.77344,2.4316406 0,1.5527343 0.77929,2.4667969 0.78516,0.90820308 2.17383,0.90820308 1.42969,0 2.19141,-0.87890628 0.76758,-0.8847656 0.76758,-2.4960937 z" /><path
               id="path218"
               d="M 231.14311,-7.3417969 V 0 h -1.11328 v -7.3417969 h -2.83594 v -0.9140625 h 6.78516 v 0.9140625 z" /><path
               id="path220"
               d="m 240.01041,0 v -8.2558594 h 6.26367 v 0.9140625 h -5.14453 v 2.6484375 h 4.79297 v 0.9023438 h -4.79297 v 2.8769531 h 5.38476 V 0 Z" /><path
               id="path222"
               d="m 260.8056,-2.2792969 q 0,1.1425782 -0.89648,1.76953128 -0.89063,0.62695312 -2.51367,0.62695312 -3.01758,0 -3.49805,-2.0976562 l 1.08398,-0.2167969 q 0.1875,0.7441406 0.79688,1.0957031 0.60937,0.34570313 1.6582,0.34570313 1.08399,0 1.66992,-0.36914063 0.5918,-0.375 0.5918,-1.0957031 0,-0.4042969 -0.1875,-0.65625 -0.18164,-0.2519532 -0.51562,-0.4160157 -0.33399,-0.1640625 -0.79688,-0.2753906 -0.46289,-0.1113281 -1.02539,-0.2402344 -0.97852,-0.2167968 -1.48828,-0.4335937 -0.50391,-0.2167969 -0.79688,-0.4804687 -0.29296,-0.2695313 -0.45117,-0.6269532 -0.15234,-0.3574218 -0.15234,-0.8203125 0,-1.0605468 0.80859,-1.6347656 0.81446,-0.5742188 2.32617,-0.5742188 1.40625,0 2.15039,0.4335938 0.74415,0.4277344 1.04297,1.4648438 l -1.10156,0.1933593 q -0.18164,-0.65625 -0.69141,-0.9492187 -0.50976,-0.2988281 -1.4121,-0.2988281 -0.99024,0 -1.51172,0.328125 -0.52149,0.328125 -0.52149,0.9785156 0,0.3808594 0.19922,0.6328125 0.20508,0.2460937 0.58594,0.421875 0.38086,0.1699219 1.51758,0.421875 0.38086,0.087891 0.75586,0.1816406 0.38086,0.087891 0.72656,0.2167969 0.3457,0.1230469 0.64453,0.2929687 0.30469,0.1699219 0.52734,0.4160156 0.22266,0.2460938 0.34571,0.5800782 0.1289,0.3339843 0.1289,0.7851562 z" /><path
               id="path224"
               d="m 270.3251,-1.2832031 v 0.98437497 q 0,0.62109376 -0.11132,1.03710938 -0.11133,0.41601565 -0.34571,0.79687495 h -0.7207 Q 269.69815,0.73828125 269.69815,0 h -0.51562 v -1.2832031 z" /></g><g
             style="font-variant:normal;font-weight:normal;font-family:Arial;-inkscape-font-specification:Arial;writing-mode:lr-tb;fill:#ffffff;fill-opacity:1;fill-rule:nonzero;stroke:none"
             id="text62"
             transform="translate(111.34375,41)"
             aria-label="SKETCH AND LEARN"><path
               id="path227"
               d="m 7.453125,-2.2792969 q 0,1.1425782 -0.8964844,1.76953128 -0.890625,0.62695312 -2.5136719,0.62695312 -3.0175781,0 -3.49804683,-2.0976562 L 1.6289062,-2.1972656 q 0.1875,0.7441406 0.7968751,1.0957031 0.609375,0.34570313 1.6582031,0.34570313 1.0839843,0 1.6699218,-0.36914063 0.5917969,-0.375 0.5917969,-1.0957031 0,-0.4042969 -0.1875,-0.65625 Q 5.9765625,-3.1289063 5.6425781,-3.2929688 5.3085937,-3.4570313 4.8457031,-3.5683594 4.3828125,-3.6796875 3.8203125,-3.8085938 2.8417969,-4.0253906 2.3320313,-4.2421875 1.828125,-4.4589844 1.5351562,-4.7226562 1.2421875,-4.9921875 1.0839844,-5.3496094 0.93164063,-5.7070312 0.93164063,-6.1699219 q 0,-1.0605468 0.80859377,-1.6347656 0.8144531,-0.5742188 2.3261718,-0.5742188 1.40625,0 2.1503907,0.4335938 0.7441406,0.4277344 1.0429687,1.4648438 l -1.1015625,0.1933593 q -0.1816406,-0.65625 -0.6914062,-0.9492187 -0.5097657,-0.2988281 -1.4121094,-0.2988281 -0.9902344,0 -1.5117187,0.328125 -0.5214844,0.328125 -0.5214844,0.9785156 0,0.3808594 0.1992187,0.6328125 0.2050782,0.2460937 0.5859375,0.421875 0.3808594,0.1699219 1.5175781,0.421875 0.3808594,0.087891 0.7558594,0.1816406 0.3808594,0.087891 0.7265625,0.2167969 0.3457031,0.1230469 0.6445313,0.2929687 0.3046875,0.1699219 0.5273437,0.4160156 0.2226563,0.2460938 0.3457031,0.5800782 0.1289063,0.3339843 0.1289063,0.7851562 z" /><path
               id="path229"
               d="m 21.197224,0 -3.298828,-3.984375 -1.078125,0.8203125 V 0 H 15.70113 v -8.2558594 h 1.119141 v 4.1367188 l 3.978515,-4.1367188 h 1.31836 L 18.601521,-4.6699219 22.585896,0 Z" /><path
               id="path231"
               d="m 28.466331,0 v -8.2558594 h 6.263672 v 0.9140625 h -5.144531 v 2.6484375 h 4.792969 v 0.9023438 h -4.792969 v 2.8769531 h 5.384766 V 0 Z" /><path
               id="path233"
               d="M 46.027157,-7.3417969 V 0 h -1.113281 v -7.3417969 h -2.835938 v -0.9140625 h 6.785156 v 0.9140625 z" /><path
               id="path235"
               d="m 58.550705,-7.4648437 q -1.371094,0 -2.132813,0.8847656 -0.761718,0.8789062 -0.761718,2.4140625 0,1.5175781 0.791015,2.4433594 0.796875,0.91992182 2.150391,0.91992182 1.734375,0 2.607422,-1.71679692 L 62.119064,-2.0625 q -0.509765,1.06640625 -1.435547,1.62304687 -0.919921,0.55664063 -2.138671,0.55664063 -1.248047,0 -2.16211,-0.515625 -0.908203,-0.52148438 -1.388672,-1.4824219 -0.474609,-0.9667969 -0.474609,-2.2851562 0,-1.9746094 1.066406,-3.09375 1.066406,-1.1191407 2.953125,-1.1191407 1.31836,0 2.203125,0.5156251 0.884766,0.515625 1.300781,1.5292968 l -1.060546,0.3515625 q -0.28711,-0.7207031 -0.925782,-1.1015625 -0.632812,-0.3808593 -1.505859,-0.3808593 z" /><path
               id="path237"
               d="M 78.220093,0 V -3.8261719 H 73.755249 V 0 h -1.119141 v -8.2558594 h 1.119141 v 3.4921875 h 4.464844 v -3.4921875 h 1.11914 V 0 Z" /><path
               id="path239"
               d="m 102.4783,0 -0.94336,-2.4140625 H 97.773224 L 96.824005,0 h -1.160156 l 3.369141,-8.2558594 h 1.27148 L 103.62088,0 Z m -2.824217,-7.4121094 -0.05273,0.1640625 Q 99.454865,-6.7617187 99.167755,-6 l -1.054687,2.7128906 h 3.087892 l -1.06055,-2.7246093 q -0.164061,-0.4042969 -0.328124,-0.9140625 z" /><path
               id="path241"
               d="m 117.53617,0 -4.41797,-7.03125 0.0293,0.5683594 0.0293,0.9785156 V 0 h -0.9961 v -8.2558594 h 1.30078 l 4.46485,7.078125 q -0.0703,-1.1484375 -0.0703,-1.6640625 v -5.4140625 h 1.00782 V 0 Z" /><path
               id="path243"
               d="m 134.55132,-4.2128906 q 0,1.2773437 -0.49805,2.2382812 -0.49805,0.9550782 -1.41211,1.46484378 Q 131.7271,0 130.53178,0 h -3.08789 v -8.2558594 h 2.73047 q 2.09766,0 3.23438,1.0546875 1.14258,1.0488282 1.14258,2.9882813 z m -1.125,0 q 0,-1.5351563 -0.84375,-2.3378906 -0.8379,-0.8085938 -2.43165,-0.8085938 h -1.58789 v 6.46289062 h 1.83985 q 0.9082,0 1.59375,-0.39843752 0.6914,-0.3984375 1.06054,-1.1484375 0.36915,-0.75 0.36915,-1.7695312 z" /><path
               id="path245"
               d="m 152.38884,0 v -8.2558594 h 1.11914 v 7.3417969 h 4.17188 V 0 Z" /><path
               id="path247"
               d="m 163.86601,0 v -8.2558594 h 6.26367 v 0.9140625 h -5.14453 v 2.6484375 h 4.79297 v 0.9023438 h -4.79297 v 2.8769531 h 5.38477 V 0 Z" /><path
               id="path249"
               d="m 184.04597,0 -0.94335,-2.4140625 H 179.3409 L 178.39168,0 h -1.16016 l 3.36914,-8.2558594 h 1.27149 L 185.18855,0 Z m -2.82421,-7.4121094 -0.0527,0.1640625 Q 181.02254,-6.7617187 180.73543,-6 l -1.05469,2.7128906 h 3.08789 l -1.06055,-2.7246093 q -0.16406,-0.4042969 -0.32812,-0.9140625 z" /><path
               id="path251"
               d="m 199.58432,0 -2.14453,-3.4277344 h -2.57227 V 0 h -1.11914 v -8.2558594 h 3.88477 q 1.39453,0 2.15039,0.6269532 0.76172,0.6210937 0.76172,1.734375 0,0.9199218 -0.53906,1.546875 -0.53321,0.6269531 -1.47657,0.7910156 L 200.87338,0 Z m -0.16406,-5.8828125 q 0,-0.7207031 -0.49219,-1.0957031 -0.48633,-0.3808594 -1.40625,-0.3808594 h -2.6543 V -4.3125 h 2.70118 q 0.88476,0 1.36523,-0.4101562 0.48633,-0.4160157 0.48633,-1.1601563 z" /><path
               id="path253"
               d="m 213.23514,0 -4.41797,-7.03125 0.0293,0.5683594 0.0293,0.9785156 V 0 h -0.99609 v -8.2558594 h 1.30078 l 4.46484,7.078125 q -0.0703,-1.1484375 -0.0703,-1.6640625 v -5.4140625 h 1.00781 V 0 Z" /></g></g><g
           transform="matrix(3.125,0,0,3.125,1341.0551,328.79858)"
           id="g64"><g
             style="font-variant:normal;font-weight:800;font-size:96px;font-family:'Open Sans';-inkscape-font-specification:OpenSans-ExtraBold;writing-mode:lr-tb;fill:#e91e63;fill-opacity:1;fill-rule:nonzero;stroke:none"
             id="text68"
             transform="translate(41.09375,104)"
             aria-label="Xournal++"><path
               id="path256"
               d="M 69.140625,0 H 47.71875 L 34.359375,-21.421875 21.140625,0 H 0.1875 l 22.734375,-35.0625 -21.375,-33.46875 h 20.53125 l 12.375,21.1875 11.90625,-21.1875 H 67.5 l -21.703125,34.921875 z" /><path
               id="path258"
               d="m 126.46875,-26.671875 q 0,13.03125 -7.03125,20.34375 -6.98437,7.265625 -19.59375,7.265625 -12.09375,0 -19.265625,-7.453125 -7.125,-7.453125 -7.125,-20.15625 0,-12.984375 6.984375,-20.15625 7.03125,-7.21875 19.6875,-7.21875 7.82813,0 13.82813,3.328125 6,3.328125 9.23437,9.5625 3.28125,6.1875 3.28125,14.484375 z m -34.40625,0 q 0,6.84375 1.828125,10.453125 1.828125,3.5625 6.140625,3.5625 4.26563,0 6,-3.5625 1.78125,-3.609375 1.78125,-10.453125 0,-6.796875 -1.78125,-10.265625 -1.78125,-3.46875 -6.09375,-3.46875 -4.21875,0 -6.046875,3.46875 -1.828125,3.421875 -1.828125,10.265625 z" /><path
               id="path260"
               d="m 174.75,0 -2.29688,-6.609375 H 171.375 q -2.29688,3.65625 -6.42188,5.625 -4.07812,1.921875 -9.60937,1.921875 -8.76563,0 -13.64063,-5.0625 -4.875,-5.109375 -4.875,-14.390625 v -34.59375 h 18.32813 v 29.015625 q 0,5.203125 1.45312,7.875 1.5,2.671875 4.875,2.671875 4.73438,0 6.75,-3.703125 Q 170.25,-21 170.25,-29.859375 v -23.25 h 18.32812 V 0 Z" /><path
               id="path262"
               d="m 233.29687,-54.046875 q 2.39063,0 4.54688,0.375 l 1.03125,0.1875 -1.64063,17.296875 Q 234.98437,-36.75 231,-36.75 q -6,0 -8.71875,2.765625 -2.71875,2.71875 -2.71875,7.875 V 0 H 201.23437 V -53.109375 H 214.875 l 2.85937,8.484375 h 0.89063 q 2.29687,-4.21875 6.375,-6.796875 4.125,-2.625 8.29687,-2.625 z" /><path
               id="path264"
               d="m 279.79687,0 v -28.96875 q 0,-5.296875 -1.54687,-7.96875 -1.5,-2.71875 -4.875,-2.71875 -4.64063,0 -6.70313,3.703125 -2.0625,3.703125 -2.0625,12.703125 V 0 h -18.32812 v -53.109375 h 13.82812 l 2.29688,6.5625 h 1.07812 q 2.34375,-3.75 6.46875,-5.625 4.17188,-1.875 9.5625,-1.875 8.8125,0 13.6875,5.109375 4.92188,5.109375 4.92188,14.390625 V 0 Z" /><path
               id="path266"
               d="m 345.23437,0 -3.51562,-7.03125 h -0.375 q -3.70313,4.59375 -7.54688,6.28125 -3.84375,1.6875 -9.9375,1.6875 -7.5,0 -11.8125,-4.5 -4.3125,-4.5 -4.3125,-12.65625 0,-8.484375 5.90625,-12.609375 Q 319.54687,-33 330.75,-33.515625 l 8.85937,-0.28125 v -0.75 q 0,-6.5625 -6.46875,-6.5625 -5.8125,0 -14.76562,3.9375 l -5.29688,-12.09375 q 9.28125,-4.78125 23.4375,-4.78125 10.21875,0 15.79688,5.0625 5.625,5.0625 5.625,14.15625 V 0 Z m -13.59375,-12 q 3.32813,0 5.67188,-2.109375 2.39062,-2.109375 2.39062,-5.484375 v -4.125 l -4.21875,0.1875 q -9.04687,0.328125 -9.04687,6.65625 0,4.875 5.20312,4.875 z" /><path
               id="path268"
               d="m 388.73437,0 h -18.32812 v -72.9375 h 18.32812 z" /><path
               id="path270"
               d="m 415.92187,-27.5625 h -17.4375 V -40.125 h 17.4375 v -17.203125 h 12.60938 V -40.125 h 17.4375 v 12.5625 h -17.4375 v 16.921875 h -12.60938 z" /><path
               id="path272"
               d="M 470.25,-27.5625 H 452.8125 V -40.125 H 470.25 v -17.203125 h 12.60937 V -40.125 h 17.4375 v 12.5625 h -17.4375 v 16.921875 H 470.25 Z" /></g></g></g></g><g
       id="g70"><g
         clip-path="url(#clipPath76)"
         id="g72"><g
           transform="matrix(3.5151715,0,0,3.5264764,-82.850037,-56.267502)"
           id="g78"><path
             id="path80"
             style="fill:#e91e63;fill-opacity:1;fill-rule:nonzero;stroke:none"
             d="M 315.44,154.81 303.01999,142.47 313.06998,132.36 325.48999,144.7 315.44,154.81" /><path
             id="path82"
             style="fill:#263238;fill-opacity:1;fill-rule:nonzero;stroke:none"
             d="m 301.57001,146.92999 c -1.98001,2 -5.20999,2.01 -7.20001,0.03 l -16.35001,-16.25 c -2,-1.97999 -2,-5.21 -0.02,-7.19999 l 34.70999,-34.93601 c 7.28,-7.328003 11.67999,-2.953003 13.67999,-0.969002 l 10.93,10.872002 c 2,1.983 6.23999,6.203 -1.03,13.523 l -34.72,34.93" /><path
             id="path84"
             style="fill:#e91e63;fill-opacity:1;fill-rule:nonzero;stroke:none"
             d="m 243.10001,237.7 c -1.98,1.99 -4.11,3.1 -4.74001,2.46 l -5.22,-5.17999 c -0.64,-0.64 0.45,-2.77 2.42999,-4.75999 l 87.83,-88.16001 c 7.28,-7.33 8.69001,-5.93001 9.32999,-5.3 l 3.48999,3.47 c 0.64002,0.64 1.98999,1.98 -5.29001,9.31 l -87.83,88.16" /><path
             id="path86"
             style="fill:#263238;fill-opacity:1;fill-rule:nonzero;stroke:none"
             d="m 297.07001,104.32 -192.22,192.66001 -20.030003,43.73001 43.610003,-20.29999 192.21,-192.66999 -23.57,-23.42" /><path
             id="path88"
             style="fill:#e91e63;fill-opacity:1;fill-rule:nonzero;stroke:none"
             d="m 104.85,296.98001 -20.03,43.73001 43.60999,-20.29999 z" /><path
             id="path90"
             style="fill:#ffffff;fill-opacity:1;fill-rule:nonzero;stroke:none"
             d="m 92.75,323.41 -7.93,17.29999 17.32,-8.07001 z" /><path
             id="path92"
             style="fill:#e91e63;fill-opacity:1;fill-rule:nonzero;stroke:none"
             d="M 301.57001,146.92999 278,123.51 l 19.07001,-19.19001 23.57,23.42 -19.07,19.19" /></g></g></g><g
       id="g94"><g
         clip-path="url(#clipPath100)"
         id="g96"><g
           transform="matrix(3.125,0,0,3.125,1341.0551,707.13184)"
           id="g102"><g
             style="font-variant:normal;font-weight:normal;font-size:37.33px;font-family:'Open Sans';-inkscape-font-specification:OpenSans-Regular;writing-mode:lr-tb;fill:#ffffff;fill-opacity:1;fill-rule:nonzero;stroke:none"
             id="text106"
             transform="translate(224.29688,40)"
             aria-label="official mobile app"><path
               id="path114"
               d="m 20.4513,-10.006919 q 0,4.8849803 -2.460718,7.6373388 -2.460718,2.734131 -6.798872,2.734131 -2.6794488,0 -4.7573884,-1.25770026 Q 4.356382,-2.1508497 3.2262746,-4.5022024 2.0961671,-6.853555 2.0961671,-10.006919 q 0,-4.884981 2.4424903,-7.600885 2.4424904,-2.734131 6.7806446,-2.734131 4.192335,0 6.653052,2.788814 2.478946,2.788814 2.478946,7.546202 z m -15.219996,0 q 0,3.827783 1.5311133,5.8328123 1.5311134,2.0050294 4.5022027,2.0050294 2.971089,0 4.502202,-1.9868018 1.549341,-2.0050294 1.549341,-5.8510399 0,-3.809556 -1.549341,-5.778131 -1.531113,-1.986801 -4.538657,-1.986801 -2.9710894,0 -4.4839752,1.950346 -1.5128858,1.950347 -1.5128858,5.814586 z" /><path
               id="path116"
               d="M 34.758793,-17.626031 H 29.673309 V 0 H 26.647537 V -17.626031 H 23.07494 v -1.367066 l 3.572597,-1.093652 v -1.11188 q 0,-7.363926 6.434322,-7.363926 1.585796,0 3.718418,0.637964 l -0.783784,2.424263 q -1.749844,-0.565054 -2.989317,-0.565054 -1.713388,0 -2.533628,1.148335 -0.820239,1.130107 -0.820239,3.645508 v 1.294155 h 5.085484 z" /><path
               id="path118"
               d="M 47.408069,-17.626031 H 42.322586 V 0 h -3.025772 v -17.626031 h -3.572598 v -1.367066 l 3.572598,-1.093652 v -1.11188 q 0,-7.363926 6.434322,-7.363926 1.585796,0 3.718418,0.637964 l -0.783784,2.424263 q -1.749844,-0.565054 -2.989317,-0.565054 -1.713389,0 -2.533628,1.148335 -0.820239,1.130107 -0.820239,3.645508 v 1.294155 h 5.085483 z" /><path
               id="path120"
               d="m 54.078713,0 h -3.025772 v -19.977384 h 3.025772 z m -3.280957,-25.390963 q 0,-1.03897 0.510371,-1.512886 0.510371,-0.492144 1.275928,-0.492144 0.729101,0 1.2577,0.492144 0.528599,0.492144 0.528599,1.512886 0,1.020742 -0.528599,1.531113 -0.528599,0.492144 -1.2577,0.492144 -0.765557,0 -1.275928,-0.492144 -0.510371,-0.510371 -0.510371,-1.531113 z" /><path
               id="path122"
               d="m 68.477995,0.3645508 q -4.338155,0 -6.725962,-2.6612208 -2.369581,-2.6794484 -2.369581,-7.5644291 0,-5.0125739 2.406036,-7.7467049 2.424263,-2.734131 6.89001,-2.734131 1.439976,0 2.879951,0.309869 1.439976,0.309868 2.260215,0.729101 l -0.929604,2.570083 q -1.002515,-0.401006 -2.187305,-0.656191 -1.18479,-0.273413 -2.096167,-0.273413 -6.087999,0 -6.087999,7.7649318 0,3.6819631 1.476431,5.6505374 1.494658,1.9685743 4.411065,1.9685743 2.497173,0 5.121939,-1.0754249 v 2.67944842 Q 71.521994,0.3645508 68.477995,0.3645508 Z" /><path
               id="path124"
               d="m 81.29107,0 h -3.025772 v -19.977384 h 3.025772 z m -3.280958,-25.390963 q 0,-1.03897 0.510372,-1.512886 0.510371,-0.492144 1.275927,-0.492144 0.729102,0 1.257701,0.492144 0.528598,0.492144 0.528598,1.512886 0,1.020742 -0.528598,1.531113 -0.528599,0.492144 -1.257701,0.492144 -0.765556,0 -1.275927,-0.492144 -0.510372,-0.510371 -0.510372,-1.531113 z" /><path
               id="path126"
               d="m 99.992051,0 -0.601509,-2.8434962 h -0.14582 q -1.494658,1.87743658 -2.989317,2.55185556 -1.47643,0.65619144 -3.70019,0.65619144 -2.971089,0 -4.666251,-1.5311134 -1.676933,-1.5311133 -1.676933,-4.356382 0,-6.0515434 9.678823,-6.3431844 l 3.390323,-0.109365 v -1.239472 q 0,-2.351353 -1.020742,-3.463233 -1.002515,-1.130108 -3.226275,-1.130108 -2.497173,0 -5.650537,1.531114 l -0.929605,-2.314898 q 1.476431,-0.802012 3.226275,-1.2577 1.768071,-0.455689 3.536142,-0.455689 3.572598,0 5.285985,1.585796 1.73162,1.585796 1.73162,5.085484 V 0 Z m -6.835328,-2.1326222 q 2.825269,0 4.429293,-1.5493409 1.622251,-1.5493409 1.622251,-4.3381545 V -9.824644 l -3.025772,0.1275927 q -3.609053,0.1275928 -5.213076,1.1301075 -1.585796,0.9842872 -1.585796,3.0804543 0,1.6404786 0.984287,2.4971729 1.002515,0.8566944 2.788813,0.8566944 z" /><path
               id="path128"
               d="m 111.49259,0 h -3.02577 v -28.362052 h 3.02577 z" /><path
               id="path130"
               d="m 153.06865,0 v -12.996236 q 0,-2.387808 -1.02074,-3.572598 -1.02075,-1.203017 -3.1716,-1.203017 -2.82526,0 -4.1741,1.622251 -1.34884,1.622251 -1.34884,4.994346 V 0 h -3.02577 v -12.996236 q 0,-2.387808 -1.02074,-3.572598 -1.02075,-1.203017 -3.18982,-1.203017 -2.8435,0 -4.17411,1.713388 -1.31238,1.695162 -1.31238,5.577628 V 0 h -3.02577 v -19.977384 h 2.46071 l 0.49215,2.734131 h 0.14582 q 0.85669,-1.458203 2.40603,-2.278442 1.56757,-0.82024 3.49969,-0.82024 4.68448,0 6.12445,3.390323 h 0.14582 q 0.89315,-1.567569 2.58831,-2.478946 1.69517,-0.911377 3.86424,-0.911377 3.39033,0 5.06726,1.749844 1.69516,1.731617 1.69516,5.5594 V 0 Z" /><path
               id="path132"
               d="m 179.56975,-10.006919 q 0,4.8849803 -2.46071,7.6373388 -2.46072,2.734131 -6.79888,2.734131 -2.67944,0 -4.75738,-1.25770026 -2.07794,-1.25770024 -3.20805,-3.60905294 -1.13011,-2.3513526 -1.13011,-5.5047166 0,-4.884981 2.44249,-7.600885 2.44249,-2.734131 6.78065,-2.734131 4.19233,0 6.65305,2.788814 2.47894,2.788814 2.47894,7.546202 z m -15.21999,0 q 0,3.827783 1.53111,5.8328123 1.53111,2.0050294 4.5022,2.0050294 2.97109,0 4.50221,-1.9868018 1.54934,-2.0050294 1.54934,-5.8510399 0,-3.809556 -1.54934,-5.778131 -1.53112,-1.986801 -4.53866,-1.986801 -2.97109,0 -4.48398,1.950346 -1.51288,1.950347 -1.51288,5.814586 z" /><path
               id="path134"
               d="m 194.16889,-20.30548 q 3.93715,0 6.10622,2.697676 2.18731,2.679449 2.18731,7.600885 0,4.9214354 -2.20553,7.6555663 -2.18731,2.7159035 -6.088,2.7159035 -1.95035,0 -3.5726,-0.71087406 -1.60402,-0.72910164 -2.69768,-2.22375984 h -0.21873 L 187.04192,0 h -2.16908 v -28.362052 h 3.02577 v 6.89001 q 0,2.314898 -0.14582,4.155879 h 0.14582 q 2.1144,-2.989317 6.27028,-2.989317 z m -0.43746,2.533629 q -3.09869,0 -4.46575,1.786298 -1.36707,1.768072 -1.36707,5.978634 0,4.2105613 1.40352,6.0333153 1.40352,1.8045264 4.50221,1.8045264 2.78881,0 4.15588,-2.0232569 1.36706,-2.0414845 1.36706,-5.8510408 0,-3.900693 -1.36706,-5.814585 -1.36707,-1.913891 -4.22879,-1.913891 z" /><path
               id="path136"
               d="m 210.77303,0 h -3.02577 v -19.977384 h 3.02577 z m -3.28095,-25.390963 q 0,-1.03897 0.51037,-1.512886 0.51037,-0.492144 1.27593,-0.492144 0.7291,0 1.2577,0.492144 0.52859,0.492144 0.52859,1.512886 0,1.020742 -0.52859,1.531113 -0.5286,0.492144 -1.2577,0.492144 -0.76556,0 -1.27593,-0.492144 -0.51037,-0.510371 -0.51037,-1.531113 z" /><path
               id="path138"
               d="m 220.21442,0 h -3.02577 v -28.362052 h 3.02577 z" /><path
               id="path140"
               d="m 235.0694,0.3645508 q -4.4293,0 -6.99938,-2.6976759 -2.55186,-2.6976759 -2.55186,-7.4915189 0,-4.830298 2.36958,-7.673794 2.38781,-2.843497 6.39787,-2.843497 3.75487,0 5.94218,2.478946 2.1873,2.460718 2.1873,6.507232 v 1.9138913 H 228.6533 q 0.0911,3.5179152 1.76807,5.3406692 1.69516,1.822754 4.75739,1.822754 3.22627,0 6.37964,-1.348838 v 2.69767596 q -1.60402,0.69264652 -3.044,0.98428716 -1.42175,0.30986818 -3.445,0.30986818 z m -0.82024,-18.1728578 q -2.40604,0 -3.84602,1.567569 -1.42174,1.567568 -1.67693,4.338154 h 10.44438 q 0,-2.861723 -1.27593,-4.374609 -1.27592,-1.531114 -3.6455,-1.531114 z" /><path
               id="path142"
               d="m 269.55437,0 -0.60151,-2.8434962 h -0.14582 q -1.49466,1.87743658 -2.98932,2.55185556 -1.47643,0.65619144 -3.70019,0.65619144 -2.97109,0 -4.66625,-1.5311134 -1.67693,-1.5311133 -1.67693,-4.356382 0,-6.0515434 9.67882,-6.3431844 l 3.39032,-0.109365 v -1.239472 q 0,-2.351353 -1.02074,-3.463233 -1.00251,-1.130108 -3.22627,-1.130108 -2.49718,0 -5.65054,1.531114 l -0.9296,-2.314898 q 1.47643,-0.802012 3.22627,-1.2577 1.76807,-0.455689 3.53614,-0.455689 3.5726,0 5.28599,1.585796 1.73162,1.585796 1.73162,5.085484 V 0 Z m -6.83533,-2.1326222 q 2.82527,0 4.42929,-1.5493409 1.62225,-1.5493409 1.62225,-4.3381545 V -9.824644 l -3.02577,0.1275927 q -3.60905,0.1275928 -5.21307,1.1301075 -1.5858,0.9842872 -1.5858,3.0804543 0,1.6404786 0.98429,2.4971729 1.00251,0.8566944 2.78881,0.8566944 z" /><path
               id="path144"
               d="m 287.3252,0.3645508 q -1.95035,0 -3.5726,-0.71087406 -1.60402,-0.72910164 -2.69768,-2.22375984 h -0.21873 q 0.21873,1.7498438 0.21873,3.31741224 V 8.9679497 h -3.02577 V -19.977384 h 2.46072 l 0.41923,2.734131 h 0.14582 q 1.16657,-1.640478 2.71591,-2.36958 1.54934,-0.729102 3.55437,-0.729102 3.9736,0 6.12445,2.715904 2.16908,2.715903 2.16908,7.619112 0,4.9214354 -2.20553,7.6555663 -2.18731,2.7159035 -6.088,2.7159035 z m -0.43746,-18.1364018 q -3.06223,0 -4.42929,1.695161 -1.36707,1.695161 -1.40353,5.395352 v 0.674419 q 0,4.2105613 1.40353,6.0333153 1.40352,1.8045264 4.5022,1.8045264 2.58831,0 4.04651,-2.096167 1.47643,-2.0961671 1.47643,-5.7781307 0,-3.736645 -1.47643,-5.723447 -1.4582,-2.005029 -4.11942,-2.005029 z" /><path
               id="path146"
               d="m 310.19962,0.3645508 q -1.95035,0 -3.5726,-0.71087406 -1.60402,-0.72910164 -2.69768,-2.22375984 h -0.21873 q 0.21873,1.7498438 0.21873,3.31741224 V 8.9679497 h -3.02577 V -19.977384 h 2.46072 l 0.41923,2.734131 h 0.14582 q 1.16657,-1.640478 2.71591,-2.36958 1.54934,-0.729102 3.55437,-0.729102 3.9736,0 6.12445,2.715904 2.16908,2.715903 2.16908,7.619112 0,4.9214354 -2.20553,7.6555663 -2.18731,2.7159035 -6.088,2.7159035 z m -0.43746,-18.1364018 q -3.06223,0 -4.42929,1.695161 -1.36707,1.695161 -1.40353,5.395352 v 0.674419 q 0,4.2105613 1.40353,6.0333153 1.40352,1.8045264 4.5022,1.8045264 2.58831,0 4.04651,-2.096167 1.47643,-2.0961671 1.47643,-5.7781307 0,-3.736645 -1.47643,-5.723447 -1.4582,-2.005029 -4.11942,-2.005029 z" /></g></g><g
           transform="matrix(3.125,0,0,3.125,229.66147,1202.6697)"
           id="g108"><g
             style="font-variant:normal;font-weight:300;font-size:32px;font-family:'Open Sans';-inkscape-font-specification:OpenSans-Light;writing-mode:lr-tb;fill:#ffffff;fill-opacity:1;fill-rule:nonzero;stroke:none"
             id="text112"
             transform="translate(0,34)"
             aria-label="www.xournal.online"><path
               id="path149"
               d="m 16.421875,0 -3.71875,-11.359375 Q 12.34375,-12.515625 11.78125,-14.75 H 11.6875 l -0.328125,1.15625 -0.703125,2.265625 L 6.875,0 H 5.34375 L 0.484375,-16.984375 h 1.65625 l 2.71875,9.84375 q 0.953125,3.65625 1.25,5.375 h 0.09375 Q 7.125,-5.421875 7.546875,-6.625 l 3.5,-10.359375 h 1.40625 L 15.78125,-6.65625 q 1.125,3.671875 1.375,4.859375 H 17.25 q 0.125,-1.015625 1.25,-5.4375 l 2.59375,-9.75 h 1.5625 L 18.046875,0 Z" /><path
               id="path151"
               d="M 39.5625,0 35.84375,-11.359375 Q 35.484375,-12.515625 34.921875,-14.75 h -0.09375 L 34.5,-13.59375 33.796875,-11.328125 30.015625,0 h -1.53125 L 23.625,-16.984375 h 1.65625 L 28,-7.140625 q 0.953125,3.65625 1.25,5.375 h 0.09375 Q 30.265625,-5.421875 30.6875,-6.625 l 3.5,-10.359375 h 1.40625 l 3.328125,10.328125 q 1.125,3.671875 1.375,4.859375 h 0.09375 q 0.125,-1.015625 1.25,-5.4375 l 2.59375,-9.75 h 1.5625 L 41.1875,0 Z" /><path
               id="path153"
               d="m 62.703125,0 -3.71875,-11.359375 Q 58.625,-12.515625 58.0625,-14.75 H 57.96875 L 57.640625,-13.59375 56.9375,-11.328125 53.15625,0 H 51.625 l -4.859375,-16.984375 h 1.65625 l 2.71875,9.84375 q 0.953125,3.65625 1.25,5.375 h 0.09375 q 0.921875,-3.65625 1.34375,-4.859375 l 3.5,-10.359375 h 1.40625 L 62.0625,-6.65625 q 1.125,3.671875 1.375,4.859375 h 0.09375 q 0.125,-1.015625 1.25,-5.4375 l 2.59375,-9.75 h 1.5625 L 64.328125,0 Z" /><path
               id="path155"
               d="m 71.953125,-1.21875 q 0,-1.53125 1.25,-1.53125 1.28125,0 1.28125,1.53125 0,1.53125 -1.28125,1.53125 -1.25,0 -1.25,-1.53125 z" /><path
               id="path157"
               d="m 84.046875,-8.734375 -5.921875,-8.25 h 1.78125 l 5.0625,7.15625 5.015625,-7.15625 H 91.6875 l -5.828125,8.25 L 92.109375,0 H 90.3125 L 84.96875,-7.578125 79.59375,0 h -1.703125 z" /><path
               id="path159"
               d="m 109.85938,-8.515625 q 0,4.15625 -2.01563,6.5 -2.01562,2.328125 -5.5625,2.328125 -2.23437,0 -3.9375,-1.078125 -1.703125,-1.078125 -2.609375,-3.09375 -0.90625,-2.015625 -0.90625,-4.65625 0,-4.15625 2.015625,-6.46875 2.015625,-2.328125 5.53125,-2.328125 3.5,0 5.48438,2.359375 2,2.34375 2,6.4375 z m -13.406255,0 q 0,3.5 1.53125,5.46875 1.546875,1.953125 4.359375,1.953125 2.8125,0 4.34375,-1.953125 1.54688,-1.96875 1.54688,-5.46875 0,-3.515625 -1.5625,-5.453125 -1.54688,-1.9375 -4.35938,-1.9375 -2.8125,0 -4.34375,1.9375 -1.515625,1.921875 -1.515625,5.453125 z" /><path
               id="path161"
               d="m 115.90625,-16.984375 v 11 q 0,2.5625 1.07813,3.734375 1.07812,1.15625 3.34375,1.15625 3.03125,0 4.45312,-1.53125 1.4375,-1.53125 1.4375,-4.984375 v -9.375 H 127.75 V 0 h -1.3125 l -0.28125,-2.34375 h -0.0937 q -1.65625,2.65625 -5.89062,2.65625 -5.79688,0 -5.79688,-6.203125 v -11.09375 z" /><path
               id="path163"
               d="m 140.125,-17.3125 q 1.07812,0 2.3125,0.21875 l -0.29688,1.484375 q -1.0625,-0.265625 -2.20312,-0.265625 -2.17188,0 -3.5625,1.84375 -1.39063,1.84375 -1.39063,4.65625 V 0 h -1.54687 v -16.984375 h 1.3125 l 0.15625,3.0625 h 0.10937 q 1.04688,-1.875 2.23438,-2.625 1.1875,-0.765625 2.875,-0.765625 z" /><path
               id="path165"
               d="m 157.73437,0 v -11.015625 q 0,-2.5625 -1.07812,-3.71875 -1.07813,-1.171875 -3.34375,-1.171875 -3.04688,0 -4.46875,1.546875 -1.40625,1.53125 -1.40625,4.984375 V 0 h -1.54688 v -16.984375 h 1.3125 L 147.5,-14.65625 h 0.0937 q 1.65625,-2.65625 5.89062,-2.65625 5.78125,0 5.78125,6.203125 V 0 Z" /><path
               id="path167"
               d="m 175.07812,0 -0.39062,-2.6875 h -0.125 q -1.28125,1.640625 -2.64063,2.328125 -1.34375,0.671875 -3.1875,0.671875 -2.5,0 -3.89062,-1.28125 -1.39063,-1.28125 -1.39063,-3.546875 0,-2.484375 2.0625,-3.859375 2.07813,-1.375 6,-1.453125 l 3.23438,-0.09375 v -1.125 q 0,-2.421875 -0.98438,-3.65625 -0.98437,-1.234375 -3.17187,-1.234375 -2.35938,0 -4.89063,1.3125 l -0.57812,-1.34375 q 2.79687,-1.3125 5.53125,-1.3125 2.79687,0 4.17187,1.453125 1.39063,1.453125 1.39063,4.53125 V 0 Z m -6.25,-1.09375 q 2.71875,0 4.28125,-1.546875 1.57813,-1.5625 1.57813,-4.328125 v -1.671875 l -2.96875,0.125 q -3.57813,0.171875 -5.10938,1.125 -1.51562,0.9375 -1.51562,2.9375 0,1.59375 0.96875,2.484375 0.98437,0.875 2.76562,0.875 z" /><path
               id="path169"
               d="m 183.26562,0 h -1.54687 v -24.3125 h 1.54687 z" /><path
               id="path171"
               d="m 188.64062,-1.21875 q 0,-1.53125 1.25,-1.53125 1.28125,0 1.28125,1.53125 0,1.53125 -1.28125,1.53125 -1.25,0 -1.25,-1.53125 z" /><path
               id="path173"
               d="m 210.60937,-8.515625 q 0,4.15625 -2.01562,6.5 -2.01563,2.328125 -5.5625,2.328125 -2.23438,0 -3.9375,-1.078125 -1.70313,-1.078125 -2.60938,-3.09375 -0.90625,-2.015625 -0.90625,-4.65625 0,-4.15625 2.01563,-6.46875 2.01562,-2.328125 5.53125,-2.328125 3.5,0 5.48437,2.359375 2,2.34375 2,6.4375 z m -13.40625,0 q 0,3.5 1.53125,5.46875 1.54688,1.953125 4.35938,1.953125 2.8125,0 4.34375,-1.953125 1.54687,-1.96875 1.54687,-5.46875 0,-3.515625 -1.5625,-5.453125 -1.54687,-1.9375 -4.35937,-1.9375 -2.8125,0 -4.34375,1.9375 -1.51563,1.921875 -1.51563,5.453125 z" /><path
               id="path175"
               d="m 227.15625,0 v -11.015625 q 0,-2.5625 -1.07813,-3.71875 -1.07812,-1.171875 -3.34375,-1.171875 -3.04687,0 -4.46875,1.546875 -1.40625,1.53125 -1.40625,4.984375 V 0 h -1.54687 v -16.984375 h 1.3125 l 0.29687,2.328125 h 0.0937 q 1.65625,-2.65625 5.89063,-2.65625 5.78125,0 5.78125,6.203125 V 0 Z" /><path
               id="path177"
               d="m 235.73437,0 h -1.54687 v -24.3125 h 1.54687 z" /><path
               id="path179"
               d="m 242.96875,0 h -1.54688 v -16.984375 h 1.54688 z m -1.76563,-21.703125 q 0,-1.5 0.98438,-1.5 0.48437,0 0.75,0.390625 0.28125,0.390625 0.28125,1.109375 0,0.703125 -0.28125,1.109375 -0.26563,0.40625 -0.75,0.40625 -0.98438,0 -0.98438,-1.515625 z" /><path
               id="path181"
               d="m 260.5,0 v -11.015625 q 0,-2.5625 -1.07813,-3.71875 -1.07812,-1.171875 -3.34375,-1.171875 -3.04687,0 -4.46875,1.546875 -1.40625,1.53125 -1.40625,4.984375 V 0 h -1.54687 v -16.984375 h 1.3125 l 0.29687,2.328125 h 0.0937 q 1.65625,-2.65625 5.89063,-2.65625 5.78125,0 5.78125,6.203125 V 0 Z" /><path
               id="path183"
               d="m 274.39062,0.3125 q -3.70312,0 -5.78125,-2.28125 -2.0625,-2.28125 -2.0625,-6.390625 0,-4.0625 2,-6.5 2,-2.453125 5.39063,-2.453125 3,0 4.73437,2.09375 1.73438,2.09375 1.73438,5.6875 v 1.25 h -12.23438 q 0.0312,3.5 1.625,5.34375 1.60938,1.84375 4.59375,1.84375 1.45313,0 2.54688,-0.203125 1.10937,-0.203125 2.79687,-0.875 v 1.40625 q -1.4375,0.625 -2.65625,0.84375 -1.21875,0.234375 -2.6875,0.234375 z m -0.45312,-16.25 q -2.45313,0 -3.9375,1.625 -1.48438,1.609375 -1.73438,4.65625 h 10.5 q 0,-2.953125 -1.28125,-4.609375 -1.28125,-1.671875 -3.54687,-1.671875 z" /></g></g></g></g></g></svg>
